# xmcd
# 
# Track frame offsets:
#     150
#     28200
#     49650
# 
# Disc length: 1044
# 
# Revision: 1
# Processed by: cddbd v1.5.2PL0 Copyright (c) Steve Scherf et al.
# Submitted via: fre:ac v1.0.17
# 
DISCID=20041203
DTITLE=Histoires pour les petits - Février 2012
DYEAR=2012
DGENRE=Speech
TTITLE0=Yack a dit
TTITLE1=Il court, il court, papa furet
TTITLE2=Les amis de la jungle
EXTD=
EXTT0=
EXTT1=
EXTT2=
PLAYORDER=
